PathFileType	4	(X/Y/Z)	c:/Users/goper/Files/vsCode/490R/osim_files/A05/A05_Static01.trc
DataRate	CameraRate	NumFrames	NumMarkers	Units                	OrigDataRate	OrigDataStartFrame	OrigNumFrames
250.00	250.00	9	36	mm	250.0	2627	3502
                Frame#	Time	LPSIS			LASIS			LTH1			LTH2			LTH3			LTH4			LLFE			LMFE			LSH1			LSH2			LSH3			LSH4			LLMAL			LMMAL			LCAL			LMTP5			LTOE			LMTP1			RPSIS			RASIS			RTH1			RTH2			RTH3			RTH4			RLFE			RMFE			RSH1			RSH2			RSH3			RSH4			RLMAL			RMMAL			RCAL			RMTP1			RTOE			RMTP5		
		X1	Y1	Z1	X2	Y2	Z2	X3	Y3	Z3	X4	Y4	Z4	X5	Y5	Z5	X6	Y6	Z6	X7	Y7	Z7	X8	Y8	Z8	X9	Y9	Z9	X10	Y10	Z10	X11	Y11	Z11	X12	Y12	Z12	X13	Y13	Z13	X14	Y14	Z14	X15	Y15	Z15	X16	Y16	Z16	X17	Y17	Z17	X18	Y18	Z18	X19	Y19	Z19	X20	Y20	Z20	X21	Y21	Z21	X22	Y22	Z22	X23	Y23	Z23	X24	Y24	Z24	X25	Y25	Z25	X26	Y26	Z26	X27	Y27	Z27	X28	Y28	Z28	X29	Y29	Z29	X30	Y30	Z30	X31	Y31	Z31	X32	Y32	Z32	X33	Y33	Z33	X34	Y34	Z34	X35	Y35	Z35	X36	Y36	Z36

2627	10.50400	0.00000	0.00000	0.00000	343.45316	966.56281	265.14554	275.11325	701.44891	217.69928	230.48288	649.14764	237.84987	280.10565	658.31610	220.29893	0.00000	0.00000	0.00000	295.54468	480.52988	241.65088	302.04498	475.59711	340.74393	256.11932	387.20480	233.09290	249.32933	340.34103	231.81894	314.44589	376.02042	241.85823	302.41702	332.44260	236.82269	255.45921	116.91901	233.05064	260.82294	119.10614	322.78549	174.27191	66.27952	290.00641	380.49130	49.64489	200.22928	434.78165	70.95433	259.11719	395.64056	63.69107	308.92328	172.37733	997.33582	480.55142	360.14856	976.72772	579.97278	322.45578	628.07477	620.13043	334.15005	588.30511	611.65625	381.75150	642.31592	603.95428	384.46408	595.49060	595.01270	308.78448	516.65485	599.13550	339.23331	501.46771	462.79974	220.13429	269.26028	579.32654	212.05817	225.33321	568.77948	279.55521	253.22282	580.24353	260.36612	208.50369	572.57562	199.00726	111.57629	544.44574	251.19987	134.90448	461.88455	152.81207	70.29686	452.68390	363.42572	58.88184	491.07703	384.24301	65.73700	550.15094	308.26993	43.00443	597.83441
2628	10.50800	0.00000	0.00000	0.00000	343.43680	966.57782	265.16129	275.11685	701.45782	217.69545	230.45285	649.12085	237.86984	280.06271	658.30627	220.32812	0.00000	0.00000	0.00000	295.56366	480.54150	241.61633	302.08093	475.63110	340.76028	256.14236	387.20337	233.08768	249.41714	340.49075	231.71371	314.47791	376.04581	241.84659	302.40021	332.42569	236.81180	255.47812	116.92150	233.03587	260.88483	119.14045	322.76944	0.00000	0.00000	0.00000	380.48199	49.63968	200.22523	434.80200	70.95639	259.11295	395.64850	63.67506	308.91626	172.39455	997.31927	480.56140	360.16739	976.70703	579.95862	322.47885	628.08948	620.13501	334.16376	588.29688	611.65393	381.79385	642.32025	603.93842	384.47922	595.48865	595.00305	308.82632	516.66364	599.12524	339.23965	501.46796	462.80127	220.15021	269.27454	579.32123	212.11815	225.39175	568.81769	279.57233	253.23312	580.22412	260.40530	208.52348	572.58185	199.01051	111.61539	544.44598	251.22083	134.92424	461.88257	152.85193	70.28215	452.68326	363.44101	58.87059	491.05844	384.27518	65.76498	550.13623	308.25003	43.00017	597.81378
2629	10.51200	0.00000	0.00000	0.00000	343.46451	966.61133	265.15680	275.12079	701.49139	217.68146	230.46368	649.15118	237.87749	280.09082	658.31738	220.33510	0.00000	0.00000	0.00000	295.57584	480.54645	241.63097	302.08356	475.64319	340.74622	256.07840	387.19397	233.10269	249.40974	340.49142	231.72507	314.47479	376.04718	241.85263	302.40530	332.43015	236.81007	255.46896	116.92151	233.02058	260.91324	119.16006	322.76050	174.29591	66.35684	289.98563	380.46561	49.62917	200.22687	434.82870	70.98595	259.12021	395.67813	63.71559	308.90610	172.40282	997.33710	480.56348	360.19370	976.73895	579.95496	322.52335	628.08710	620.13153	334.19196	588.31134	611.64465	381.80237	642.32941	603.96851	384.50589	595.50183	595.00592	308.86029	516.66272	599.14258	339.24628	501.46475	462.80527	220.16779	269.31979	579.33972	212.12520	225.38617	568.83960	279.57947	253.24797	580.23456	260.45865	208.54768	572.58972	198.87431	111.48188	544.36566	251.20619	134.92381	461.88144	152.84880	70.32657	452.68686	363.44498	58.87786	491.04984	384.28897	65.77834	550.12848	307.09558	42.03677	598.13416
2630	10.51600	0.00000	0.00000	0.00000	343.48254	966.58838	265.13000	275.18637	701.50360	217.65967	230.45590	649.13434	237.88982	280.08017	658.29297	220.34361	0.00000	0.00000	0.00000	295.53625	480.51373	241.65025	302.08185	475.60797	340.76544	256.14520	387.20651	233.11745	249.42744	340.48782	231.73747	314.48026	376.03809	241.88106	302.40366	332.44244	236.80882	255.48204	116.92291	233.03333	260.90320	119.14548	322.77921	174.35019	66.39573	289.92331	380.48105	49.61940	200.24374	434.82507	70.97950	259.09448	395.67606	63.69534	308.91016	172.36136	997.37030	480.62476	360.22610	976.71637	579.97327	322.52029	628.06354	620.12622	334.20172	588.29626	611.65118	381.82770	642.31079	603.95123	384.52985	595.49426	595.02936	308.84772	516.65192	599.13312	339.26151	501.46475	462.80786	220.20230	269.31934	579.34613	212.18633	225.43791	568.85712	279.59589	253.23473	580.22369	260.44653	208.51813	572.56854	199.05014	111.62628	544.42065	251.21509	134.90001	461.88141	152.86745	70.34244	452.66479	363.44061	58.89372	491.04095	384.28491	65.77319	550.12927	308.35300	43.05454	597.82971
2631	10.52000	0.00000	0.00000	0.00000	343.46268	966.58002	265.16177	275.12735	701.43341	217.72063	230.45667	649.10211	237.89342	280.10001	658.28491	220.33157	0.00000	0.00000	0.00000	295.58884	480.54092	241.64363	302.10739	475.62598	340.76080	256.11307	387.17886	233.13318	249.41460	340.48282	231.73833	314.46085	376.01373	241.87691	302.40369	332.42523	236.82877	255.45941	116.87176	233.03461	260.87659	119.12225	322.77856	0.00000	0.00000	0.00000	380.48700	49.62930	200.23782	434.80096	70.96674	259.10489	395.67377	63.69845	308.91742	172.38560	997.36346	480.62656	360.21548	976.70575	579.97003	322.56876	628.08844	620.15540	334.23767	588.29340	611.66479	381.84198	642.31384	603.96454	384.52347	595.44708	595.04498	308.86768	516.64673	599.16711	339.27951	501.47824	462.79443	220.16386	269.31024	579.35553	212.14893	225.39400	568.84729	279.58670	253.22958	580.22809	260.45081	208.53458	572.58380	198.98961	111.57585	544.40448	251.20383	134.90097	461.88489	152.89117	70.31838	452.65439	363.64136	59.10894	491.08960	384.30954	65.78684	550.12665	308.45944	43.03653	597.87396
2632	10.52400	0.00000	0.00000	0.00000	343.44510	966.55670	265.17935	275.17810	701.49231	217.68103	230.48561	649.10693	237.89149	280.11304	658.28424	220.33936	218.51692	691.13477	239.80185	295.60220	480.50961	241.65567	302.12018	475.63412	340.76205	256.12726	387.17450	233.10367	249.43633	340.44659	231.73309	314.49005	376.02713	241.87367	302.42075	332.41003	236.83223	255.45985	116.90179	233.05247	260.89011	119.13519	322.77670	0.00000	0.00000	0.00000	380.49384	49.58571	200.22400	434.80585	70.98093	259.10297	395.67694	63.68734	308.90302	172.40106	997.34741	480.66406	360.24139	976.69269	579.98541	322.52393	628.05603	620.12756	334.19754	588.28430	611.64539	381.83423	642.29315	603.96515	384.52216	595.45325	595.03217	308.86002	516.64343	599.13177	339.25858	501.42035	462.79544	220.13211	269.31671	579.33075	212.06966	225.35661	568.79260	279.57928	253.22850	580.22614	260.42096	208.51709	572.56128	198.99915	111.62558	544.38062	251.23276	134.89314	461.87064	152.83655	70.27571	452.68973	363.64758	59.10849	491.07355	384.27496	65.75087	550.12915	308.29630	43.02520	597.79633
2633	10.52800	0.00000	0.00000	0.00000	343.45294	966.53851	265.18958	275.15799	701.43872	217.72566	230.48770	649.11414	237.91116	280.12268	658.27087	220.33498	0.00000	0.00000	0.00000	295.58463	480.49985	241.65138	302.09247	475.59451	340.77173	256.14743	387.18085	233.12627	249.41548	340.46548	231.72284	314.49725	376.02161	241.88768	302.42041	332.40512	236.82552	255.46707	116.88909	233.03436	260.89114	119.15109	322.75754	174.27925	66.29734	289.96698	380.48761	49.61195	200.23587	434.82135	70.98483	259.07376	395.68518	63.72540	308.90775	172.45245	997.32111	480.66211	360.25021	976.69043	579.97949	322.53220	628.07794	620.12146	334.18280	588.27667	611.61743	381.84845	642.30780	603.95972	384.52863	595.44208	595.00781	308.81082	516.64417	599.12085	339.24063	501.39706	462.79388	220.11707	269.31204	579.32727	212.04201	225.41078	568.73401	279.55295	253.19624	580.20996	260.37982	208.50351	572.55933	198.94977	111.60957	544.34857	251.22028	134.86493	461.87000	152.81297	70.25264	452.69449	363.62814	59.13290	491.05917	384.26459	65.77249	550.10107	308.29498	43.04385	597.78198
2634	10.53200	0.00000	0.00000	0.00000	343.48157	966.54041	265.16116	275.14191	701.39496	217.73079	230.49805	649.09668	237.91418	280.12164	658.25250	220.35741	218.45081	691.02606	239.88379	295.58722	480.48969	241.66464	302.11310	475.60342	340.79208	256.09833	387.13113	233.13713	249.42023	340.44873	231.76781	314.49371	375.99936	241.86641	302.41547	332.38620	236.82841	255.47739	116.86938	233.03995	260.91061	119.16518	322.72040	174.25700	66.22520	289.99597	380.48401	49.58340	200.24413	434.82562	70.99809	259.06259	395.68234	63.72130	308.86673	172.45950	997.31049	480.67551	360.30847	976.70502	579.98688	322.54907	628.07031	620.09888	334.25052	588.32025	611.62433	381.87814	642.31927	603.92889	384.59409	595.49396	594.98993	308.85733	516.66644	599.11090	339.23190	501.37894	462.80072	220.07295	269.31628	579.27527	212.05502	225.46416	568.72046	279.58762	253.21701	580.19940	260.39099	208.51698	572.53156	198.80418	111.49080	544.26105	251.23999	134.87663	461.86270	152.83588	70.20653	452.70352	363.64789	59.15482	491.02863	384.26801	65.78915	550.07489	308.39343	43.05759	597.81055
2635	10.53600	0.00000	0.00000	0.00000	343.47452	966.54071	265.18994	275.11621	701.41260	217.78252	230.47198	649.05438	237.93848	280.10587	658.24359	220.36127	218.45970	691.04675	239.86870	295.59814	480.48273	241.66641	302.10751	475.61014	340.76547	256.14865	387.14258	233.13457	249.44450	340.45407	231.74413	314.50461	376.03088	241.87094	302.44183	332.40674	236.82469	255.47417	116.85303	233.04796	260.93552	119.19969	322.72873	174.27232	66.17412	290.06851	380.48923	49.59883	200.22826	434.85638	71.03019	259.05029	395.70752	63.75304	308.86597	172.44952	997.29034	480.70364	360.33954	976.70551	579.96649	322.58511	628.08130	620.10400	334.26599	588.32526	611.60779	381.91678	642.33380	603.90112	384.60693	595.49487	594.96033	308.90811	516.69891	599.12500	339.26913	501.37921	462.76910	220.09804	269.34299	579.27252	212.22240	225.59688	568.81274	279.60196	253.22455	580.19604	260.40906	208.52547	572.53137	199.00214	111.66470	544.33655	251.18980	134.85603	461.86755	152.84157	70.20488	452.70151	363.66772	59.17620	491.01416	384.29041	65.79060	550.06561	308.34698	43.13467	597.79333
